{
    "asset" : {
        "generator" : "Khronos glTF Blender I/O v3.2.43",
        "version" : "2.0"
    },
    "scene" : 0,
    "scenes" : [
        {
            "name" : "Scene",
            "nodes" : [
                0,
                1
            ]
        }
    ],
    "nodes" : [
        {
            "mesh" : 0,
            "name" : "Text",
            "rotation" : [
                0.5001125931739807,
                0.5001125931739807,
                -0.4998874366283417,
                0.49988749623298645
            ],
            "scale" : [
                0.44191840291023254,
                0.441918283700943,
                0.44191840291023254
            ],
            "translation" : [
                0.15988856554031372,
                -0.0717197135090828,
                0.2567189335823059
            ]
        },
        {
            "mesh" : 1,
            "name" : "Cylinder.001",
            "rotation" : [
                0,
                0,
                -0.7071067094802856,
                0.7071068286895752
            ],
            "scale" : [
                1,
                0.19834356009960175,
                1
            ],
            "translation" : [
                -0.15988856554031372,
                -0.033456724137067795,
                0.010356396436691284
            ]
        }
    ],
    "materials" : [
        {
            "doubleSided" : true,
            "name" : "Material.005",
            "pbrMetallicRoughness" : {
                "baseColorFactor" : [
                    0,
                    0,
                    0,
                    1
                ],
                "metallicFactor" : 0,
                "roughnessFactor" : 0.5
            }
        },
        {
            "doubleSided" : true,
            "name" : "Material.003",
            "pbrMetallicRoughness" : {
                "baseColorFactor" : [
                    0.8000000715255737,
                    0.008053107187151909,
                    0,
                    1
                ],
                "metallicFactor" : 0,
                "roughnessFactor" : 0.5
            }
        },
        {
            "doubleSided" : true,
            "name" : "Material.004",
            "pbrMetallicRoughness" : {
                "baseColorFactor" : [
                    0.8000000715255737,
                    0.5524089932441711,
                    0,
                    1
                ],
                "metallicFactor" : 0,
                "roughnessFactor" : 0.5
            }
        }
    ],
    "meshes" : [
        {
            "name" : "Text",
            "primitives" : [
                {
                    "attributes" : {
                        "POSITION" : 0,
                        "NORMAL" : 1,
                        "TEXCOORD_0" : 2
                    },
                    "indices" : 3,
                    "material" : 0
                }
            ]
        },
        {
            "name" : "Cylinder.004",
            "primitives" : [
                {
                    "attributes" : {
                        "POSITION" : 4,
                        "NORMAL" : 5,
                        "TEXCOORD_0" : 6
                    },
                    "indices" : 7,
                    "material" : 1
                },
                {
                    "attributes" : {
                        "POSITION" : 8,
                        "NORMAL" : 9,
                        "TEXCOORD_0" : 10
                    },
                    "indices" : 11,
                    "material" : 2
                }
            ]
        }
    ],
    "accessors" : [
        {
            "bufferView" : 0,
            "componentType" : 5126,
            "count" : 6974,
            "max" : [
                2.2084882259368896,
                0.019999999552965164,
                0.24500665068626404
            ],
            "min" : [
                -1.0025118589401245,
                -0.019999999552965164,
                -0.4660034477710724
            ],
            "type" : "VEC3"
        },
        {
            "bufferView" : 1,
            "componentType" : 5126,
            "count" : 6974,
            "type" : "VEC3"
        },
        {
            "bufferView" : 2,
            "componentType" : 5126,
            "count" : 6974,
            "type" : "VEC2"
        },
        {
            "bufferView" : 3,
            "componentType" : 5123,
            "count" : 19536,
            "type" : "SCALAR"
        },
        {
            "bufferView" : 4,
            "componentType" : 5126,
            "count" : 204,
            "max" : [
                1,
                1,
                1
            ],
            "min" : [
                -1,
                -1,
                -1
            ],
            "type" : "VEC3"
        },
        {
            "bufferView" : 5,
            "componentType" : 5126,
            "count" : 204,
            "type" : "VEC3"
        },
        {
            "bufferView" : 6,
            "componentType" : 5126,
            "count" : 204,
            "type" : "VEC2"
        },
        {
            "bufferView" : 7,
            "componentType" : 5123,
            "count" : 384,
            "type" : "SCALAR"
        },
        {
            "bufferView" : 8,
            "componentType" : 5126,
            "count" : 766,
            "max" : [
                1,
                1.604320764541626,
                1
            ],
            "min" : [
                -1,
                -1,
                -1
            ],
            "type" : "VEC3"
        },
        {
            "bufferView" : 9,
            "componentType" : 5126,
            "count" : 766,
            "type" : "VEC3"
        },
        {
            "bufferView" : 10,
            "componentType" : 5126,
            "count" : 766,
            "type" : "VEC2"
        },
        {
            "bufferView" : 11,
            "componentType" : 5123,
            "count" : 1332,
            "type" : "SCALAR"
        }
    ],
    "bufferViews" : [
        {
            "buffer" : 0,
            "byteLength" : 83688,
            "byteOffset" : 0
        },
        {
            "buffer" : 0,
            "byteLength" : 83688,
            "byteOffset" : 83688
        },
        {
            "buffer" : 0,
            "byteLength" : 55792,
            "byteOffset" : 167376
        },
        {
            "buffer" : 0,
            "byteLength" : 39072,
            "byteOffset" : 223168
        },
        {
            "buffer" : 0,
            "byteLength" : 2448,
            "byteOffset" : 262240
        },
        {
            "buffer" : 0,
            "byteLength" : 2448,
            "byteOffset" : 264688
        },
        {
            "buffer" : 0,
            "byteLength" : 1632,
            "byteOffset" : 267136
        },
        {
            "buffer" : 0,
            "byteLength" : 768,
            "byteOffset" : 268768
        },
        {
            "buffer" : 0,
            "byteLength" : 9192,
            "byteOffset" : 269536
        },
        {
            "buffer" : 0,
            "byteLength" : 9192,
            "byteOffset" : 278728
        },
        {
            "buffer" : 0,
            "byteLength" : 6128,
            "byteOffset" : 287920
        },
        {
            "buffer" : 0,
            "byteLength" : 2664,
            "byteOffset" : 294048
        }
    ],
    "buffers" : [
        {
            "byteLength" : 296712,
            "uri" : "data:application/octet-stream;base64,"
        }
    ]
}
