{
    "asset" : {
        "generator" : "Khronos glTF Blender I/O v3.2.43",
        "version" : "2.0"
    },
    "scene" : 0,
    "scenes" : [
        {
            "name" : "Scene",
            "nodes" : [
                0,
                1
            ]
        }
    ],
    "nodes" : [
        {
            "mesh" : 0,
            "name" : "Sphere.006",
            "rotation" : [
                0.9661720395088196,
                0.09826155006885529,
                0.0776224285364151,
                0.22545745968818665
            ],
            "scale" : [
                -0.7055704593658447,
                -1.316927433013916,
                -0.7061141729354858
            ],
            "translation" : [
                1.7121014595031738,
                0.23847591876983643,
                5.831367015838623
            ]
        },
        {
            "mesh" : 1,
            "name" : "Sphere.003",
            "rotation" : [
                0.9661720395088196,
                0.0982615202665329,
                0.07762254029512405,
                0.22545748949050903
            ],
            "scale" : [
                0.7055704593658447,
                1.316927433013916,
                0.7061141729354858
            ],
            "translation" : [
                1.7121014595031738,
                0.23847591876983643,
                -9.028738021850586
            ]
        }
    ],
    "materials" : [
        {
            "doubleSided" : true,
            "name" : "Material.035",
            "pbrMetallicRoughness" : {
                "baseColorFactor" : [
                    0.07538658380508423,
                    0.005641050636768341,
                    0.8000000715255737,
                    1
                ],
                "metallicFactor" : 0,
                "roughnessFactor" : 0.5
            }
        },
        {
            "doubleSided" : true,
            "name" : "Material.034",
            "pbrMetallicRoughness" : {
                "baseColorFactor" : [
                    0.00831250287592411,
                    0.10381657630205154,
                    0,
                    1
                ],
                "metallicFactor" : 0,
                "roughnessFactor" : 0.5
            }
        }
    ],
    "meshes" : [
        {
            "name" : "Sphere.015",
            "primitives" : [
                {
                    "attributes" : {
                        "POSITION" : 0,
                        "NORMAL" : 1,
                        "TEXCOORD_0" : 2
                    },
                    "indices" : 3,
                    "material" : 0
                }
            ]
        },
        {
            "name" : "Sphere.016",
            "primitives" : [
                {
                    "attributes" : {
                        "POSITION" : 4,
                        "NORMAL" : 5,
                        "TEXCOORD_0" : 6
                    },
                    "indices" : 3,
                    "material" : 1
                }
            ]
        }
    ],
    "accessors" : [
        {
            "bufferView" : 0,
            "componentType" : 5126,
            "count" : 16318,
            "max" : [
                4.73654317855835,
                3.451955795288086,
                6.474371910095215
            ],
            "min" : [
                -4.133598327636719,
                -2.223210334777832,
                -6.8897294998168945
            ],
            "type" : "VEC3"
        },
        {
            "bufferView" : 1,
            "componentType" : 5126,
            "count" : 16318,
            "type" : "VEC3"
        },
        {
            "bufferView" : 2,
            "componentType" : 5126,
            "count" : 16318,
            "type" : "VEC2"
        },
        {
            "bufferView" : 3,
            "componentType" : 5123,
            "count" : 24000,
            "type" : "SCALAR"
        },
        {
            "bufferView" : 4,
            "componentType" : 5126,
            "count" : 16318,
            "max" : [
                4.73654317855835,
                3.451955795288086,
                6.474371910095215
            ],
            "min" : [
                -4.133598327636719,
                -2.223210334777832,
                -6.8897294998168945
            ],
            "type" : "VEC3"
        },
        {
            "bufferView" : 5,
            "componentType" : 5126,
            "count" : 16318,
            "type" : "VEC3"
        },
        {
            "bufferView" : 6,
            "componentType" : 5126,
            "count" : 16318,
            "type" : "VEC2"
        }
    ],
    "bufferViews" : [
        {
            "buffer" : 0,
            "byteLength" : 195816,
            "byteOffset" : 0
        },
        {
            "buffer" : 0,
            "byteLength" : 195816,
            "byteOffset" : 195816
        },
        {
            "buffer" : 0,
            "byteLength" : 130544,
            "byteOffset" : 391632
        },
        {
            "buffer" : 0,
            "byteLength" : 48000,
            "byteOffset" : 522176
        },
        {
            "buffer" : 0,
            "byteLength" : 195816,
            "byteOffset" : 570176
        },
        {
            "buffer" : 0,
            "byteLength" : 195816,
            "byteOffset" : 765992
        },
        {
            "buffer" : 0,
            "byteLength" : 130544,
            "byteOffset" : 961808
        }
    ],
    "buffers" : [
        {
            "byteLength" : 1092352,
            "uri" : "data:application/octet-stream;base64,"
        }
    ]
}
