{
    "asset" : {
        "generator" : "Khronos glTF Blender I/O v3.2.43",
        "version" : "2.0"
    },
    "scene" : 0,
    "scenes" : [
        {
            "name" : "Scene",
            "nodes" : [
                0,
                1,
                2,
                3,
                4
            ]
        }
    ],
    "nodes" : [
        {
            "mesh" : 0,
            "name" : "Sphere.009",
            "rotation" : [
                0.8866844773292542,
                -0.1593729853630066,
                -0.4282113015651703,
                0.07089432328939438
            ],
            "scale" : [
                0.06978777796030045,
                0.08225752413272858,
                0.07234568148851395
            ],
            "translation" : [
                0.8548961281776428,
                0.11862081289291382,
                -2.479778528213501
            ]
        },
        {
            "mesh" : 1,
            "name" : "Cube",
            "scale" : [
                0.7414246201515198,
                0.7414246201515198,
                0.7414246201515198
            ],
            "translation" : [
                -0.0015658672200515866,
                -0.7576625347137451,
                0.07137376070022583
            ]
        },
        {
            "mesh" : 2,
            "name" : "Icosphere",
            "scale" : [
                0.3413259983062744,
                0.3413259983062744,
                0.3413259983062744
            ],
            "translation" : [
                0.0005219556041993201,
                0.48010456562042236,
                0.549623429775238
            ]
        },
        {
            "mesh" : 3,
            "name" : "Icosphere.001",
            "rotation" : [
                -0.20152318477630615,
                0,
                0,
                0.9794837236404419
            ],
            "scale" : [
                0.2754741311073303,
                0.2754741311073303,
                0.2754741311073303
            ],
            "translation" : [
                0.0005219557788223028,
                0.45286059379577637,
                -0.23950617015361786
            ]
        },
        {
            "mesh" : 4,
            "name" : "Icosphere.002",
            "rotation" : [
                0.06023909151554108,
                0,
                0,
                0.9981839656829834
            ],
            "scale" : [
                0.2754741311073303,
                0.27547410130500793,
                0.27547410130500793
            ],
            "translation" : [
                0.0005219557788223028,
                -0.1753026843070984,
                -0.3814910054206848
            ]
        }
    ],
    "materials" : [
        {
            "doubleSided" : true,
            "name" : "Material.032",
            "pbrMetallicRoughness" : {
                "baseColorFactor" : [
                    0.3179190754890442,
                    0.45115017890930176,
                    0.12929978966712952,
                    1
                ],
                "metallicFactor" : 0,
                "roughnessFactor" : 0.5
            }
        },
        {
            "doubleSided" : true,
            "name" : "Material.033",
            "pbrMetallicRoughness" : {
                "baseColorFactor" : [
                    0.007407837547361851,
                    0.06576842069625854,
                    0,
                    1
                ],
                "metallicFactor" : 0,
                "roughnessFactor" : 0.5
            }
        },
        {
            "doubleSided" : true,
            "name" : "Material.030",
            "pbrMetallicRoughness" : {
                "baseColorFactor" : [
                    0.009438510052859783,
                    0.3505573570728302,
                    0,
                    1
                ],
                "metallicFactor" : 0,
                "roughnessFactor" : 0.5
            }
        },
        {
            "doubleSided" : true,
            "name" : "Material.031",
            "pbrMetallicRoughness" : {
                "baseColorFactor" : [
                    0.011060329154133797,
                    0.1424010694026947,
                    0,
                    1
                ],
                "metallicFactor" : 0,
                "roughnessFactor" : 0.5
            }
        }
    ],
    "meshes" : [
        {
            "name" : "Sphere.010",
            "primitives" : [
                {
                    "attributes" : {
                        "POSITION" : 0,
                        "NORMAL" : 1,
                        "TEXCOORD_0" : 2
                    },
                    "indices" : 3,
                    "material" : 0
                },
                {
                    "attributes" : {
                        "POSITION" : 4,
                        "NORMAL" : 5,
                        "TEXCOORD_0" : 6
                    },
                    "indices" : 7,
                    "material" : 1
                }
            ]
        },
        {
            "name" : "Cube",
            "primitives" : [
                {
                    "attributes" : {
                        "POSITION" : 8,
                        "NORMAL" : 9
                    },
                    "indices" : 10,
                    "material" : 2
                }
            ]
        },
        {
            "name" : "Icosphere",
            "primitives" : [
                {
                    "attributes" : {
                        "POSITION" : 11,
                        "NORMAL" : 12,
                        "TEXCOORD_0" : 13
                    },
                    "indices" : 14,
                    "material" : 3
                }
            ]
        },
        {
            "name" : "Icosphere.001",
            "primitives" : [
                {
                    "attributes" : {
                        "POSITION" : 15,
                        "NORMAL" : 16,
                        "TEXCOORD_0" : 17
                    },
                    "indices" : 14,
                    "material" : 3
                }
            ]
        },
        {
            "name" : "Icosphere.002",
            "primitives" : [
                {
                    "attributes" : {
                        "POSITION" : 18,
                        "NORMAL" : 19,
                        "TEXCOORD_0" : 20
                    },
                    "indices" : 14,
                    "material" : 3
                }
            ]
        }
    ],
    "accessors" : [
        {
            "bufferView" : 0,
            "componentType" : 5126,
            "count" : 23808,
            "max" : [
                7.740228652954102,
                16.77706527709961,
                2.7531847953796387
            ],
            "min" : [
                -7.267682075500488,
                -8.302955627441406,
                -4.339508533477783
            ],
            "type" : "VEC3"
        },
        {
            "bufferView" : 1,
            "componentType" : 5126,
            "count" : 23808,
            "type" : "VEC3"
        },
        {
            "bufferView" : 2,
            "componentType" : 5126,
            "count" : 23808,
            "type" : "VEC2"
        },
        {
            "bufferView" : 3,
            "componentType" : 5123,
            "count" : 34560,
            "type" : "SCALAR"
        },
        {
            "bufferView" : 4,
            "componentType" : 5126,
            "count" : 3600,
            "max" : [
                4.012293815612793,
                -4.667464256286621,
                2.9646246433258057
            ],
            "min" : [
                -9.3895845413208,
                -10.953550338745117,
                -5.16414213180542
            ],
            "type" : "VEC3"
        },
        {
            "bufferView" : 5,
            "componentType" : 5126,
            "count" : 3600,
            "type" : "VEC3"
        },
        {
            "bufferView" : 6,
            "componentType" : 5126,
            "count" : 3600,
            "type" : "VEC2"
        },
        {
            "bufferView" : 7,
            "componentType" : 5123,
            "count" : 3600,
            "type" : "SCALAR"
        },
        {
            "bufferView" : 8,
            "componentType" : 5126,
            "count" : 508,
            "max" : [
                0.060555052012205124,
                1.6627960205078125,
                1.5219230651855469
            ],
            "min" : [
                -0.060555052012205124,
                -0.7050647735595703,
                -0.8482754230499268
            ],
            "type" : "VEC3"
        },
        {
            "bufferView" : 9,
            "componentType" : 5126,
            "count" : 508,
            "type" : "VEC3"
        },
        {
            "bufferView" : 10,
            "componentType" : 5123,
            "count" : 3036,
            "type" : "SCALAR"
        },
        {
            "bufferView" : 11,
            "componentType" : 5126,
            "count" : 63,
            "max" : [
                0.9510578513145447,
                0.9845247268676758,
                0.9999999403953552
            ],
            "min" : [
                -0.9510578513145447,
                -0.7207352519035339,
                -0.9999999403953552
            ],
            "type" : "VEC3"
        },
        {
            "bufferView" : 12,
            "componentType" : 5126,
            "count" : 63,
            "type" : "VEC3"
        },
        {
            "bufferView" : 13,
            "componentType" : 5126,
            "count" : 63,
            "type" : "VEC2"
        },
        {
            "bufferView" : 14,
            "componentType" : 5123,
            "count" : 240,
            "type" : "SCALAR"
        },
        {
            "bufferView" : 15,
            "componentType" : 5126,
            "count" : 63,
            "max" : [
                0.9510578513145447,
                0.9845247268676758,
                0.9999999403953552
            ],
            "min" : [
                -0.9510578513145447,
                -0.7207352519035339,
                -0.9999999403953552
            ],
            "type" : "VEC3"
        },
        {
            "bufferView" : 16,
            "componentType" : 5126,
            "count" : 63,
            "type" : "VEC3"
        },
        {
            "bufferView" : 17,
            "componentType" : 5126,
            "count" : 63,
            "type" : "VEC2"
        },
        {
            "bufferView" : 18,
            "componentType" : 5126,
            "count" : 63,
            "max" : [
                0.9510578513145447,
                0.9845247268676758,
                0.9999999403953552
            ],
            "min" : [
                -0.9510578513145447,
                -0.7207352519035339,
                -0.9999999403953552
            ],
            "type" : "VEC3"
        },
        {
            "bufferView" : 19,
            "componentType" : 5126,
            "count" : 63,
            "type" : "VEC3"
        },
        {
            "bufferView" : 20,
            "componentType" : 5126,
            "count" : 63,
            "type" : "VEC2"
        }
    ],
    "bufferViews" : [
        {
            "buffer" : 0,
            "byteLength" : 285696,
            "byteOffset" : 0
        },
        {
            "buffer" : 0,
            "byteLength" : 285696,
            "byteOffset" : 285696
        },
        {
            "buffer" : 0,
            "byteLength" : 190464,
            "byteOffset" : 571392
        },
        {
            "buffer" : 0,
            "byteLength" : 69120,
            "byteOffset" : 761856
        },
        {
            "buffer" : 0,
            "byteLength" : 43200,
            "byteOffset" : 830976
        },
        {
            "buffer" : 0,
            "byteLength" : 43200,
            "byteOffset" : 874176
        },
        {
            "buffer" : 0,
            "byteLength" : 28800,
            "byteOffset" : 917376
        },
        {
            "buffer" : 0,
            "byteLength" : 7200,
            "byteOffset" : 946176
        },
        {
            "buffer" : 0,
            "byteLength" : 6096,
            "byteOffset" : 953376
        },
        {
            "buffer" : 0,
            "byteLength" : 6096,
            "byteOffset" : 959472
        },
        {
            "buffer" : 0,
            "byteLength" : 6072,
            "byteOffset" : 965568
        },
        {
            "buffer" : 0,
            "byteLength" : 756,
            "byteOffset" : 971640
        },
        {
            "buffer" : 0,
            "byteLength" : 756,
            "byteOffset" : 972396
        },
        {
            "buffer" : 0,
            "byteLength" : 504,
            "byteOffset" : 973152
        },
        {
            "buffer" : 0,
            "byteLength" : 480,
            "byteOffset" : 973656
        },
        {
            "buffer" : 0,
            "byteLength" : 756,
            "byteOffset" : 974136
        },
        {
            "buffer" : 0,
            "byteLength" : 756,
            "byteOffset" : 974892
        },
        {
            "buffer" : 0,
            "byteLength" : 504,
            "byteOffset" : 975648
        },
        {
            "buffer" : 0,
            "byteLength" : 756,
            "byteOffset" : 976152
        },
        {
            "buffer" : 0,
            "byteLength" : 756,
            "byteOffset" : 976908
        },
        {
            "buffer" : 0,
            "byteLength" : 504,
            "byteOffset" : 977664
        }
    ],
    "buffers" : [
        {
            "byteLength" : 978168,
            "uri" : "data:application/octet-stream;base64,"
        }
    ]
}
