{
    "asset" : {
        "generator" : "Khronos glTF Blender I/O v3.2.43",
        "version" : "2.0"
    },
    "scene" : 0,
    "scenes" : [
        {
            "name" : "Scene",
            "nodes" : [
                0,
                1
            ]
        }
    ],
    "nodes" : [
        {
            "mesh" : 0,
            "name" : "Text",
            "rotation" : [
                0.5001125931739807,
                0.5001125931739807,
                -0.4998874366283417,
                0.49988749623298645
            ],
            "scale" : [
                0.6632883548736572,
                0.6632881760597229,
                0.6632883548736572
            ],
            "translation" : [
                0.15988856554031372,
                -0.06379372626543045,
                -0.0008757710456848145
            ]
        },
        {
            "mesh" : 1,
            "name" : "Cylinder.001",
            "rotation" : [
                0,
                0,
                -0.7071067094802856,
                0.7071068286895752
            ],
            "scale" : [
                1,
                0.19834356009960175,
                1
            ],
            "translation" : [
                -0.15988856554031372,
                -0.033456724137067795,
                0.010356396436691284
            ]
        }
    ],
    "materials" : [
        {
            "doubleSided" : true,
            "name" : "Material.005",
            "pbrMetallicRoughness" : {
                "baseColorFactor" : [
                    0,
                    0,
                    0,
                    1
                ],
                "metallicFactor" : 0,
                "roughnessFactor" : 0.5
            }
        },
        {
            "doubleSided" : true,
            "name" : "Material.003",
            "pbrMetallicRoughness" : {
                "baseColorFactor" : [
                    0.8000000715255737,
                    0.008053107187151909,
                    0,
                    1
                ],
                "metallicFactor" : 0,
                "roughnessFactor" : 0.5
            }
        },
        {
            "doubleSided" : true,
            "name" : "Material.004",
            "pbrMetallicRoughness" : {
                "baseColorFactor" : [
                    0.8000000715255737,
                    0.5524089932441711,
                    0,
                    1
                ],
                "metallicFactor" : 0,
                "roughnessFactor" : 0.5
            }
        }
    ],
    "meshes" : [
        {
            "name" : "Text",
            "primitives" : [
                {
                    "attributes" : {
                        "POSITION" : 0,
                        "NORMAL" : 1,
                        "TEXCOORD_0" : 2
                    },
                    "indices" : 3,
                    "material" : 0
                }
            ]
        },
        {
            "name" : "Cylinder.004",
            "primitives" : [
                {
                    "attributes" : {
                        "POSITION" : 4,
                        "NORMAL" : 5,
                        "TEXCOORD_0" : 6
                    },
                    "indices" : 7,
                    "material" : 1
                },
                {
                    "attributes" : {
                        "POSITION" : 8,
                        "NORMAL" : 9,
                        "TEXCOORD_0" : 10
                    },
                    "indices" : 11,
                    "material" : 2
                }
            ]
        }
    ],
    "accessors" : [
        {
            "bufferView" : 0,
            "componentType" : 5126,
            "count" : 3706,
            "max" : [
                1.0015116930007935,
                0.019999999552965164,
                0.4660034477710724
            ],
            "min" : [
                -1.001511812210083,
                -0.019999999552965164,
                -0.4660034477710724
            ],
            "type" : "VEC3"
        },
        {
            "bufferView" : 1,
            "componentType" : 5126,
            "count" : 3706,
            "type" : "VEC3"
        },
        {
            "bufferView" : 2,
            "componentType" : 5126,
            "count" : 3706,
            "type" : "VEC2"
        },
        {
            "bufferView" : 3,
            "componentType" : 5123,
            "count" : 10296,
            "type" : "SCALAR"
        },
        {
            "bufferView" : 4,
            "componentType" : 5126,
            "count" : 204,
            "max" : [
                1,
                1,
                1
            ],
            "min" : [
                -1,
                -1,
                -1
            ],
            "type" : "VEC3"
        },
        {
            "bufferView" : 5,
            "componentType" : 5126,
            "count" : 204,
            "type" : "VEC3"
        },
        {
            "bufferView" : 6,
            "componentType" : 5126,
            "count" : 204,
            "type" : "VEC2"
        },
        {
            "bufferView" : 7,
            "componentType" : 5123,
            "count" : 384,
            "type" : "SCALAR"
        },
        {
            "bufferView" : 8,
            "componentType" : 5126,
            "count" : 766,
            "max" : [
                1,
                1.604320764541626,
                1
            ],
            "min" : [
                -1,
                -1,
                -1
            ],
            "type" : "VEC3"
        },
        {
            "bufferView" : 9,
            "componentType" : 5126,
            "count" : 766,
            "type" : "VEC3"
        },
        {
            "bufferView" : 10,
            "componentType" : 5126,
            "count" : 766,
            "type" : "VEC2"
        },
        {
            "bufferView" : 11,
            "componentType" : 5123,
            "count" : 1332,
            "type" : "SCALAR"
        }
    ],
    "bufferViews" : [
        {
            "buffer" : 0,
            "byteLength" : 44472,
            "byteOffset" : 0
        },
        {
            "buffer" : 0,
            "byteLength" : 44472,
            "byteOffset" : 44472
        },
        {
            "buffer" : 0,
            "byteLength" : 29648,
            "byteOffset" : 88944
        },
        {
            "buffer" : 0,
            "byteLength" : 20592,
            "byteOffset" : 118592
        },
        {
            "buffer" : 0,
            "byteLength" : 2448,
            "byteOffset" : 139184
        },
        {
            "buffer" : 0,
            "byteLength" : 2448,
            "byteOffset" : 141632
        },
        {
            "buffer" : 0,
            "byteLength" : 1632,
            "byteOffset" : 144080
        },
        {
            "buffer" : 0,
            "byteLength" : 768,
            "byteOffset" : 145712
        },
        {
            "buffer" : 0,
            "byteLength" : 9192,
            "byteOffset" : 146480
        },
        {
            "buffer" : 0,
            "byteLength" : 9192,
            "byteOffset" : 155672
        },
        {
            "buffer" : 0,
            "byteLength" : 6128,
            "byteOffset" : 164864
        },
        {
            "buffer" : 0,
            "byteLength" : 2664,
            "byteOffset" : 170992
        }
    ],
    "buffers" : [
        {
            "byteLength" : 173656,
            "uri" : "data:application/octet-stream;base64,"
        }
    ]
}
