{
    "asset" : {
        "generator" : "Khronos glTF Blender I/O v3.2.43",
        "version" : "2.0"
    },
    "extensionsUsed" : [
        "KHR_texture_transform"
    ],
    "extensionsRequired" : [
        "KHR_texture_transform"
    ],
    "scene" : 0,
    "scenes" : [
        {
            "name" : "Scene",
            "nodes" : [
                0
            ]
        }
    ],
    "nodes" : [
        {
            "mesh" : 0,
            "name" : "egg",
            "scale" : [
                0.465720534324646,
                0.465720534324646,
                0.465720534324646
            ]
        }
    ],
    "materials" : [
        {
            "doubleSided" : true,
            "name" : "Material.005",
            "pbrMetallicRoughness" : {
                "metallicFactor" : 0,
                "roughnessFactor" : 0.5
            }
        },
        {
            "doubleSided" : true,
            "name" : "Material.004",
            "pbrMetallicRoughness" : {
                "baseColorFactor" : [
                    0.8000000715255737,
                    0.5019705891609192,
                    0,
                    1
                ],
                "metallicFactor" : 0,
                "roughnessFactor" : 0.5
            }
        },
        {
            "doubleSided" : true,
            "name" : "Material",
            "pbrMetallicRoughness" : {
                "baseColorTexture" : {
                    "extensions" : {
                        "KHR_texture_transform" : {
                            "offset" : [
                                -0.10973430376454361,
                                0.006039043735966976
                            ],
                            "rotation" : 0.10995573550462723
                        }
                    },
                    "index" : 0
                },
                "metallicFactor" : 0,
                "roughnessFactor" : 0.5
            }
        }
    ],
    "meshes" : [
        {
            "name" : "Sphere",
            "primitives" : [
                {
                    "attributes" : {
                        "POSITION" : 0,
                        "NORMAL" : 1,
                        "TEXCOORD_0" : 2
                    },
                    "indices" : 3,
                    "material" : 0
                },
                {
                    "attributes" : {
                        "POSITION" : 4,
                        "NORMAL" : 5,
                        "TEXCOORD_0" : 6
                    },
                    "indices" : 7,
                    "material" : 1
                },
                {
                    "attributes" : {
                        "POSITION" : 8,
                        "NORMAL" : 9,
                        "TEXCOORD_0" : 10
                    },
                    "indices" : 11,
                    "material" : 2
                }
            ]
        }
    ],
    "textures" : [
        {
            "sampler" : 0,
            "source" : 0
        }
    ],
    "images" : [
        {
            "bufferView" : 12,
            "mimeType" : "image/png",
            "name" : "beef-steak-texture-260nw-396732490"
        }
    ],
    "accessors" : [
        {
            "bufferView" : 0,
            "componentType" : 5126,
            "count" : 950,
            "max" : [
                1.104406476020813,
                1.642279863357544,
                0.047176361083984375
            ],
            "min" : [
                -0.9095315337181091,
                -1.4622907638549805,
                -3.7198753356933594
            ],
            "type" : "VEC3"
        },
        {
            "bufferView" : 1,
            "componentType" : 5126,
            "count" : 950,
            "type" : "VEC3"
        },
        {
            "bufferView" : 2,
            "componentType" : 5126,
            "count" : 950,
            "type" : "VEC2"
        },
        {
            "bufferView" : 3,
            "componentType" : 5123,
            "count" : 4938,
            "type" : "SCALAR"
        },
        {
            "bufferView" : 4,
            "componentType" : 5126,
            "count" : 21,
            "max" : [
                0.5201007723808289,
                0.7516365647315979,
                -2.071504592895508
            ],
            "min" : [
                -0.330096572637558,
                -0.9893618822097778,
                -3.312117099761963
            ],
            "type" : "VEC3"
        },
        {
            "bufferView" : 5,
            "componentType" : 5126,
            "count" : 21,
            "type" : "VEC3"
        },
        {
            "bufferView" : 6,
            "componentType" : 5126,
            "count" : 21,
            "type" : "VEC2"
        },
        {
            "bufferView" : 7,
            "componentType" : 5123,
            "count" : 60,
            "type" : "SCALAR"
        },
        {
            "bufferView" : 8,
            "componentType" : 5126,
            "count" : 192,
            "max" : [
                0.10323810577392578,
                1.7451952695846558,
                2.9796648025512695
            ],
            "min" : [
                -0.10323793441057205,
                -1.111994743347168,
                0.46867620944976807
            ],
            "type" : "VEC3"
        },
        {
            "bufferView" : 9,
            "componentType" : 5126,
            "count" : 192,
            "type" : "VEC3"
        },
        {
            "bufferView" : 10,
            "componentType" : 5126,
            "count" : 192,
            "type" : "VEC2"
        },
        {
            "bufferView" : 11,
            "componentType" : 5123,
            "count" : 372,
            "type" : "SCALAR"
        }
    ],
    "bufferViews" : [
        {
            "buffer" : 0,
            "byteLength" : 11400,
            "byteOffset" : 0
        },
        {
            "buffer" : 0,
            "byteLength" : 11400,
            "byteOffset" : 11400
        },
        {
            "buffer" : 0,
            "byteLength" : 7600,
            "byteOffset" : 22800
        },
        {
            "buffer" : 0,
            "byteLength" : 9876,
            "byteOffset" : 30400
        },
        {
            "buffer" : 0,
            "byteLength" : 252,
            "byteOffset" : 40276
        },
        {
            "buffer" : 0,
            "byteLength" : 252,
            "byteOffset" : 40528
        },
        {
            "buffer" : 0,
            "byteLength" : 168,
            "byteOffset" : 40780
        },
        {
            "buffer" : 0,
            "byteLength" : 120,
            "byteOffset" : 40948
        },
        {
            "buffer" : 0,
            "byteLength" : 2304,
            "byteOffset" : 41068
        },
        {
            "buffer" : 0,
            "byteLength" : 2304,
            "byteOffset" : 43372
        },
        {
            "buffer" : 0,
            "byteLength" : 1536,
            "byteOffset" : 45676
        },
        {
            "buffer" : 0,
            "byteLength" : 744,
            "byteOffset" : 47212
        },
        {
            "buffer" : 0,
            "byteLength" : 237201,
            "byteOffset" : 47956
        }
    ],
    "samplers" : [
        {
            "magFilter" : 9729,
            "minFilter" : 9987
        }
    ],
    "buffers" : [
        {
            "byteLength" : 285160,
            "uri" : "data:application/octet-stream;base64,"
        }
    ]
}
