{
    "asset" : {
        "generator" : "Khronos glTF Blender I/O v3.2.43",
        "version" : "2.0"
    },
    "scene" : 0,
    "scenes" : [
        {
            "name" : "Scene",
            "nodes" : [
                0,
                1
            ]
        }
    ],
    "nodes" : [
        {
            "mesh" : 0,
            "name" : "Cube",
            "scale" : [
                0.08667522668838501,
                1,
                2.125709056854248
            ],
            "translation" : [
                -0.09215766191482544,
                -0.060949794948101044,
                0.26103487610816956
            ]
        },
        {
            "mesh" : 1,
            "name" : "Text",
            "rotation" : [
                0.5,
                0.5,
                -0.5,
                0.4999999701976776
            ],
            "scale" : [
                0.6054602265357971,
                1.3067326545715332,
                0.6054602265357971
            ],
            "translation" : [
                0,
                0.050989389419555664,
                0.2727847099304199
            ]
        }
    ],
    "materials" : [
        {
            "doubleSided" : true,
            "name" : "Material.006",
            "pbrMetallicRoughness" : {
                "baseColorFactor" : [
                    0.8000000715255737,
                    0.017923757433891296,
                    0,
                    1
                ],
                "metallicFactor" : 0,
                "roughnessFactor" : 0.5
            }
        },
        {
            "doubleSided" : true,
            "name" : "Material.007",
            "pbrMetallicRoughness" : {
                "baseColorFactor" : [
                    0.8000000715255737,
                    0.777272641658783,
                    0,
                    1
                ],
                "metallicFactor" : 0,
                "roughnessFactor" : 0.5
            }
        },
        {
            "doubleSided" : true,
            "name" : "Material.008",
            "pbrMetallicRoughness" : {
                "baseColorFactor" : [
                    0,
                    0,
                    0,
                    1
                ],
                "metallicFactor" : 0,
                "roughnessFactor" : 0.5
            }
        }
    ],
    "meshes" : [
        {
            "name" : "Cube",
            "primitives" : [
                {
                    "attributes" : {
                        "POSITION" : 0,
                        "NORMAL" : 1,
                        "TEXCOORD_0" : 2
                    },
                    "indices" : 3,
                    "material" : 0
                },
                {
                    "attributes" : {
                        "POSITION" : 4,
                        "NORMAL" : 5,
                        "TEXCOORD_0" : 6
                    },
                    "indices" : 7,
                    "material" : 1
                }
            ]
        },
        {
            "name" : "Text",
            "primitives" : [
                {
                    "attributes" : {
                        "POSITION" : 8,
                        "NORMAL" : 9,
                        "TEXCOORD_0" : 10
                    },
                    "indices" : 11,
                    "material" : 2
                }
            ]
        }
    ],
    "accessors" : [
        {
            "bufferView" : 0,
            "componentType" : 5126,
            "count" : 28,
            "max" : [
                -0.5187830924987793,
                1,
                1
            ],
            "min" : [
                -2.5187830924987793,
                -1,
                -1
            ],
            "type" : "VEC3"
        },
        {
            "bufferView" : 1,
            "componentType" : 5126,
            "count" : 28,
            "type" : "VEC3"
        },
        {
            "bufferView" : 2,
            "componentType" : 5126,
            "count" : 28,
            "type" : "VEC2"
        },
        {
            "bufferView" : 3,
            "componentType" : 5123,
            "count" : 54,
            "type" : "SCALAR"
        },
        {
            "bufferView" : 4,
            "componentType" : 5126,
            "count" : 68,
            "max" : [
                0.9936981201171875,
                0.8949182629585266,
                0.8949182629585266
            ],
            "min" : [
                -0.5187830924987793,
                -0.8949182629585266,
                -0.8949182629585266
            ],
            "type" : "VEC3"
        },
        {
            "bufferView" : 5,
            "componentType" : 5126,
            "count" : 68,
            "type" : "VEC3"
        },
        {
            "bufferView" : 6,
            "componentType" : 5126,
            "count" : 68,
            "type" : "VEC2"
        },
        {
            "bufferView" : 7,
            "componentType" : 5123,
            "count" : 102,
            "type" : "SCALAR"
        },
        {
            "bufferView" : 8,
            "componentType" : 5126,
            "count" : 6906,
            "max" : [
                2.9165000915527344,
                0.019999999552965164,
                0.35550856590270996
            ],
            "min" : [
                -2.9165003299713135,
                -0.019999999552965164,
                -0.35550856590270996
            ],
            "type" : "VEC3"
        },
        {
            "bufferView" : 9,
            "componentType" : 5126,
            "count" : 6906,
            "type" : "VEC3"
        },
        {
            "bufferView" : 10,
            "componentType" : 5126,
            "count" : 6906,
            "type" : "VEC2"
        },
        {
            "bufferView" : 11,
            "componentType" : 5123,
            "count" : 12552,
            "type" : "SCALAR"
        }
    ],
    "bufferViews" : [
        {
            "buffer" : 0,
            "byteLength" : 336,
            "byteOffset" : 0
        },
        {
            "buffer" : 0,
            "byteLength" : 336,
            "byteOffset" : 336
        },
        {
            "buffer" : 0,
            "byteLength" : 224,
            "byteOffset" : 672
        },
        {
            "buffer" : 0,
            "byteLength" : 108,
            "byteOffset" : 896
        },
        {
            "buffer" : 0,
            "byteLength" : 816,
            "byteOffset" : 1004
        },
        {
            "buffer" : 0,
            "byteLength" : 816,
            "byteOffset" : 1820
        },
        {
            "buffer" : 0,
            "byteLength" : 544,
            "byteOffset" : 2636
        },
        {
            "buffer" : 0,
            "byteLength" : 204,
            "byteOffset" : 3180
        },
        {
            "buffer" : 0,
            "byteLength" : 82872,
            "byteOffset" : 3384
        },
        {
            "buffer" : 0,
            "byteLength" : 82872,
            "byteOffset" : 86256
        },
        {
            "buffer" : 0,
            "byteLength" : 55248,
            "byteOffset" : 169128
        },
        {
            "buffer" : 0,
            "byteLength" : 25104,
            "byteOffset" : 224376
        }
    ],
    "buffers" : [
        {
            "byteLength" : 249480,
            "uri" : "data:application/octet-stream;base64,"
        }
    ]
}
