{
    "asset" : {
        "generator" : "Khronos glTF Blender I/O v3.2.43",
        "version" : "2.0"
    },
    "scene" : 0,
    "scenes" : [
        {
            "name" : "Scene",
            "nodes" : [
                0,
                1,
                2
            ]
        }
    ],
    "nodes" : [
        {
            "mesh" : 0,
            "name" : "Sphere",
            "scale" : [
                2.9749999046325684,
                2.4379074573516846,
                2.9749999046325684
            ],
            "translation" : [
                0,
                0,
                -7.670259475708008
            ]
        },
        {
            "mesh" : 1,
            "name" : "BezierCurve",
            "rotation" : [
                0,
                0,
                -0.7071067094802856,
                0.7071068286895752
            ],
            "translation" : [
                -1.3034614324569702,
                -15.741180419921875,
                -11.690502166748047
            ]
        },
        {
            "mesh" : 2,
            "name" : "BezierCurve.001",
            "rotation" : [
                0,
                0,
                0.7071068286895752,
                0.7071068286895752
            ],
            "scale" : [
                -1,
                -1,
                -1
            ],
            "translation" : [
                -1.3034614324569702,
                -15.741180419921875,
                -3.0737247467041016
            ]
        }
    ],
    "materials" : [
        {
            "doubleSided" : true,
            "name" : "Material.002",
            "pbrMetallicRoughness" : {
                "baseColorFactor" : [
                    0.3697940707206726,
                    0.7323841452598572,
                    0.8000000715255737,
                    1
                ],
                "metallicFactor" : 0,
                "roughnessFactor" : 0.5
            }
        },
        {
            "doubleSided" : true,
            "name" : "Material.003",
            "pbrMetallicRoughness" : {
                "baseColorFactor" : [
                    0.24619540572166443,
                    0.24619540572166443,
                    0.24619540572166443,
                    1
                ],
                "metallicFactor" : 0,
                "roughnessFactor" : 0.5
            }
        }
    ],
    "meshes" : [
        {
            "name" : "Sphere",
            "primitives" : [
                {
                    "attributes" : {
                        "POSITION" : 0,
                        "NORMAL" : 1,
                        "TEXCOORD_0" : 2
                    },
                    "indices" : 3,
                    "material" : 0
                },
                {
                    "attributes" : {
                        "POSITION" : 4,
                        "NORMAL" : 5,
                        "TEXCOORD_0" : 6
                    },
                    "indices" : 7,
                    "material" : 1
                }
            ]
        },
        {
            "name" : "BezierCurve",
            "primitives" : [
                {
                    "attributes" : {
                        "POSITION" : 8,
                        "NORMAL" : 9,
                        "TEXCOORD_0" : 10
                    },
                    "indices" : 11
                }
            ]
        },
        {
            "name" : "BezierCurve.001",
            "primitives" : [
                {
                    "attributes" : {
                        "POSITION" : 12,
                        "NORMAL" : 13,
                        "TEXCOORD_0" : 14
                    },
                    "indices" : 11
                }
            ]
        }
    ],
    "accessors" : [
        {
            "bufferView" : 0,
            "componentType" : 5126,
            "count" : 1984,
            "max" : [
                0.9377661943435669,
                2.050236225128174,
                0.9377659559249878
            ],
            "min" : [
                -0.9377657175064087,
                -0.7003822326660156,
                -0.9377654194831848
            ],
            "type" : "VEC3"
        },
        {
            "bufferView" : 1,
            "componentType" : 5126,
            "count" : 1984,
            "type" : "VEC3"
        },
        {
            "bufferView" : 2,
            "componentType" : 5126,
            "count" : 1984,
            "type" : "VEC2"
        },
        {
            "bufferView" : 3,
            "componentType" : 5123,
            "count" : 2880,
            "type" : "SCALAR"
        },
        {
            "bufferView" : 4,
            "componentType" : 5126,
            "count" : 1856,
            "max" : [
                0.379067599773407,
                -0.5807119607925415,
                0.379067599773407
            ],
            "min" : [
                -0.37906765937805176,
                -1.69709050655365,
                -0.37906765937805176
            ],
            "type" : "VEC3"
        },
        {
            "bufferView" : 5,
            "componentType" : 5126,
            "count" : 1856,
            "type" : "VEC3"
        },
        {
            "bufferView" : 6,
            "componentType" : 5126,
            "count" : 1856,
            "type" : "VEC2"
        },
        {
            "bufferView" : 7,
            "componentType" : 5123,
            "count" : 2868,
            "type" : "SCALAR"
        },
        {
            "bufferView" : 8,
            "componentType" : 5126,
            "count" : 637,
            "max" : [
                1.5009979009628296,
                0.07000080496072769,
                3.561262369155884
            ],
            "min" : [
                -11.858311653137207,
                -0.07000000774860382,
                -0.533253014087677
            ],
            "type" : "VEC3"
        },
        {
            "bufferView" : 9,
            "componentType" : 5126,
            "count" : 637,
            "type" : "VEC3"
        },
        {
            "bufferView" : 10,
            "componentType" : 5126,
            "count" : 637,
            "type" : "VEC2"
        },
        {
            "bufferView" : 11,
            "componentType" : 5123,
            "count" : 3456,
            "type" : "SCALAR"
        },
        {
            "bufferView" : 12,
            "componentType" : 5126,
            "count" : 637,
            "max" : [
                1.5009979009628296,
                0.07000081241130829,
                4.165325164794922
            ],
            "min" : [
                -11.822778701782227,
                -0.07000000774860382,
                -0.533253014087677
            ],
            "type" : "VEC3"
        },
        {
            "bufferView" : 13,
            "componentType" : 5126,
            "count" : 637,
            "type" : "VEC3"
        },
        {
            "bufferView" : 14,
            "componentType" : 5126,
            "count" : 637,
            "type" : "VEC2"
        }
    ],
    "bufferViews" : [
        {
            "buffer" : 0,
            "byteLength" : 23808,
            "byteOffset" : 0
        },
        {
            "buffer" : 0,
            "byteLength" : 23808,
            "byteOffset" : 23808
        },
        {
            "buffer" : 0,
            "byteLength" : 15872,
            "byteOffset" : 47616
        },
        {
            "buffer" : 0,
            "byteLength" : 5760,
            "byteOffset" : 63488
        },
        {
            "buffer" : 0,
            "byteLength" : 22272,
            "byteOffset" : 69248
        },
        {
            "buffer" : 0,
            "byteLength" : 22272,
            "byteOffset" : 91520
        },
        {
            "buffer" : 0,
            "byteLength" : 14848,
            "byteOffset" : 113792
        },
        {
            "buffer" : 0,
            "byteLength" : 5736,
            "byteOffset" : 128640
        },
        {
            "buffer" : 0,
            "byteLength" : 7644,
            "byteOffset" : 134376
        },
        {
            "buffer" : 0,
            "byteLength" : 7644,
            "byteOffset" : 142020
        },
        {
            "buffer" : 0,
            "byteLength" : 5096,
            "byteOffset" : 149664
        },
        {
            "buffer" : 0,
            "byteLength" : 6912,
            "byteOffset" : 154760
        },
        {
            "buffer" : 0,
            "byteLength" : 7644,
            "byteOffset" : 161672
        },
        {
            "buffer" : 0,
            "byteLength" : 7644,
            "byteOffset" : 169316
        },
        {
            "buffer" : 0,
            "byteLength" : 5096,
            "byteOffset" : 176960
        }
    ],
    "buffers" : [
        {
            "byteLength" : 182056,
            "uri" : "data:application/octet-stream;base64,"
        }
    ]
}
