{
    "asset" : {
        "generator" : "Khronos glTF Blender I/O v3.2.43",
        "version" : "2.0"
    },
    "scene" : 0,
    "scenes" : [
        {
            "name" : "Scene",
            "nodes" : [
                0,
                1
            ]
        }
    ],
    "nodes" : [
        {
            "mesh" : 0,
            "name" : "Sphere.001",
            "scale" : [
                2.9749999046325684,
                2.4379074573516846,
                2.9749999046325684
            ],
            "translation" : [
                0,
                -0.012790262699127197,
                -17.016197204589844
            ]
        },
        {
            "mesh" : 1,
            "name" : "BezierCurve.002",
            "rotation" : [
                0,
                0,
                -0.7071067094802856,
                0.7071068286895752
            ],
            "translation" : [
                -0.06589233875274658,
                -15.741180419921875,
                -21.060623168945312
            ]
        }
    ],
    "materials" : [
        {
            "doubleSided" : true,
            "name" : "Material.003",
            "pbrMetallicRoughness" : {
                "baseColorFactor" : [
                    0.24619540572166443,
                    0.24619540572166443,
                    0.24619540572166443,
                    1
                ],
                "metallicFactor" : 0,
                "roughnessFactor" : 0.5
            }
        },
        {
            "doubleSided" : true,
            "name" : "Material.005",
            "pbrMetallicRoughness" : {
                "baseColorFactor" : [
                    0.8000000715255737,
                    0.7234625220298767,
                    0,
                    1
                ],
                "metallicFactor" : 0,
                "roughnessFactor" : 0.5
            }
        }
    ],
    "meshes" : [
        {
            "name" : "Sphere.001",
            "primitives" : [
                {
                    "attributes" : {
                        "POSITION" : 0,
                        "NORMAL" : 1,
                        "TEXCOORD_0" : 2
                    },
                    "indices" : 3,
                    "material" : 0
                },
                {
                    "attributes" : {
                        "POSITION" : 4,
                        "NORMAL" : 5,
                        "TEXCOORD_0" : 6
                    },
                    "indices" : 7,
                    "material" : 1
                }
            ]
        },
        {
            "name" : "BezierCurve.002",
            "primitives" : [
                {
                    "attributes" : {
                        "POSITION" : 8,
                        "NORMAL" : 9,
                        "TEXCOORD_0" : 10
                    },
                    "indices" : 11
                }
            ]
        }
    ],
    "accessors" : [
        {
            "bufferView" : 0,
            "componentType" : 5126,
            "count" : 1856,
            "max" : [
                0.379067599773407,
                -0.5807119607925415,
                0.379067599773407
            ],
            "min" : [
                -0.37906765937805176,
                -1.6971863508224487,
                -0.37906765937805176
            ],
            "type" : "VEC3"
        },
        {
            "bufferView" : 1,
            "componentType" : 5126,
            "count" : 1856,
            "type" : "VEC3"
        },
        {
            "bufferView" : 2,
            "componentType" : 5126,
            "count" : 1856,
            "type" : "VEC2"
        },
        {
            "bufferView" : 3,
            "componentType" : 5123,
            "count" : 2868,
            "type" : "SCALAR"
        },
        {
            "bufferView" : 4,
            "componentType" : 5126,
            "count" : 1984,
            "max" : [
                0.9377661943435669,
                2.050236225128174,
                0.9377659559249878
            ],
            "min" : [
                -0.9377657175064087,
                -0.7003822326660156,
                -0.9377654194831848
            ],
            "type" : "VEC3"
        },
        {
            "bufferView" : 5,
            "componentType" : 5126,
            "count" : 1984,
            "type" : "VEC3"
        },
        {
            "bufferView" : 6,
            "componentType" : 5126,
            "count" : 1984,
            "type" : "VEC2"
        },
        {
            "bufferView" : 7,
            "componentType" : 5123,
            "count" : 2880,
            "type" : "SCALAR"
        },
        {
            "bufferView" : 8,
            "componentType" : 5126,
            "count" : 1274,
            "max" : [
                1.5009979009628296,
                0.07000081241130829,
                9.150029182434082
            ],
            "min" : [
                -11.858311653137207,
                -0.07000000774860382,
                -0.533253014087677
            ],
            "type" : "VEC3"
        },
        {
            "bufferView" : 9,
            "componentType" : 5126,
            "count" : 1274,
            "type" : "VEC3"
        },
        {
            "bufferView" : 10,
            "componentType" : 5126,
            "count" : 1274,
            "type" : "VEC2"
        },
        {
            "bufferView" : 11,
            "componentType" : 5123,
            "count" : 6912,
            "type" : "SCALAR"
        }
    ],
    "bufferViews" : [
        {
            "buffer" : 0,
            "byteLength" : 22272,
            "byteOffset" : 0
        },
        {
            "buffer" : 0,
            "byteLength" : 22272,
            "byteOffset" : 22272
        },
        {
            "buffer" : 0,
            "byteLength" : 14848,
            "byteOffset" : 44544
        },
        {
            "buffer" : 0,
            "byteLength" : 5736,
            "byteOffset" : 59392
        },
        {
            "buffer" : 0,
            "byteLength" : 23808,
            "byteOffset" : 65128
        },
        {
            "buffer" : 0,
            "byteLength" : 23808,
            "byteOffset" : 88936
        },
        {
            "buffer" : 0,
            "byteLength" : 15872,
            "byteOffset" : 112744
        },
        {
            "buffer" : 0,
            "byteLength" : 5760,
            "byteOffset" : 128616
        },
        {
            "buffer" : 0,
            "byteLength" : 15288,
            "byteOffset" : 134376
        },
        {
            "buffer" : 0,
            "byteLength" : 15288,
            "byteOffset" : 149664
        },
        {
            "buffer" : 0,
            "byteLength" : 10192,
            "byteOffset" : 164952
        },
        {
            "buffer" : 0,
            "byteLength" : 13824,
            "byteOffset" : 175144
        }
    ],
    "buffers" : [
        {
            "byteLength" : 188968,
            "uri" : "data:application/octet-stream;base64,"
        }
    ]
}
