{
    "asset" : {
        "generator" : "Khronos glTF Blender I/O v3.2.43",
        "version" : "2.0"
    },
    "extensionsUsed" : [
        "KHR_texture_transform"
    ],
    "extensionsRequired" : [
        "KHR_texture_transform"
    ],
    "scene" : 0,
    "scenes" : [
        {
            "name" : "Scene",
            "nodes" : [
                0
            ]
        }
    ],
    "nodes" : [
        {
            "mesh" : 0,
            "name" : "Sphere",
            "scale" : [
                0.5527305603027344,
                0.5527305603027344,
                0.5527305603027344
            ]
        }
    ],
    "materials" : [
        {
            "doubleSided" : true,
            "name" : "Material.009",
            "pbrMetallicRoughness" : {
                "baseColorTexture" : {
                    "extensions" : {
                        "KHR_texture_transform" : {
                            "offset" : [
                                2.3999998569488525,
                                0
                            ]
                        }
                    },
                    "index" : 0
                },
                "metallicFactor" : 0,
                "roughnessFactor" : 0.5
            }
        },
        {
            "doubleSided" : true,
            "name" : "Material.006",
            "pbrMetallicRoughness" : {
                "baseColorTexture" : {
                    "index" : 1
                },
                "metallicFactor" : 0,
                "roughnessFactor" : 0.5
            }
        },
        {
            "doubleSided" : true,
            "name" : "Material.007",
            "pbrMetallicRoughness" : {
                "baseColorFactor" : [
                    0.03744509816169739,
                    0.013094703666865826,
                    0,
                    1
                ],
                "metallicFactor" : 0,
                "roughnessFactor" : 0.5
            }
        }
    ],
    "meshes" : [
        {
            "name" : "Sphere.004",
            "primitives" : [
                {
                    "attributes" : {
                        "POSITION" : 0,
                        "NORMAL" : 1,
                        "TEXCOORD_0" : 2
                    },
                    "indices" : 3,
                    "material" : 0
                },
                {
                    "attributes" : {
                        "POSITION" : 4,
                        "NORMAL" : 5,
                        "TEXCOORD_0" : 6
                    },
                    "indices" : 7,
                    "material" : 1
                },
                {
                    "attributes" : {
                        "POSITION" : 8,
                        "NORMAL" : 9,
                        "TEXCOORD_0" : 10
                    },
                    "indices" : 11,
                    "material" : 2
                }
            ]
        }
    ],
    "textures" : [
        {
            "sampler" : 0,
            "source" : 0
        },
        {
            "sampler" : 0,
            "source" : 1
        }
    ],
    "images" : [
        {
            "bufferView" : 4,
            "mimeType" : "image/jpeg",
            "name" : "lemon"
        },
        {
            "bufferView" : 9,
            "mimeType" : "image/jpeg",
            "name" : "orange"
        }
    ],
    "accessors" : [
        {
            "bufferView" : 0,
            "componentType" : 5126,
            "count" : 7917,
            "max" : [
                0.9999995827674866,
                1.0038222074508667,
                3.337635040283203
            ],
            "min" : [
                -0.9999991655349731,
                -0.9961777925491333,
                0.164655864238739
            ],
            "type" : "VEC3"
        },
        {
            "bufferView" : 1,
            "componentType" : 5126,
            "count" : 7917,
            "type" : "VEC3"
        },
        {
            "bufferView" : 2,
            "componentType" : 5126,
            "count" : 7917,
            "type" : "VEC2"
        },
        {
            "bufferView" : 3,
            "componentType" : 5123,
            "count" : 11520,
            "type" : "SCALAR"
        },
        {
            "bufferView" : 5,
            "componentType" : 5126,
            "count" : 1984,
            "max" : [
                1.1686747074127197,
                0.9019773602485657,
                -0.45330238342285156
            ],
            "min" : [
                -1.1686742305755615,
                -1.1648529767990112,
                -2.7906503677368164
            ],
            "type" : "VEC3"
        },
        {
            "bufferView" : 6,
            "componentType" : 5126,
            "count" : 1984,
            "type" : "VEC3"
        },
        {
            "bufferView" : 7,
            "componentType" : 5126,
            "count" : 1984,
            "type" : "VEC2"
        },
        {
            "bufferView" : 8,
            "componentType" : 5123,
            "count" : 2880,
            "type" : "SCALAR"
        },
        {
            "bufferView" : 10,
            "componentType" : 5126,
            "count" : 24,
            "max" : [
                -4.088612826080862e-08,
                1.7679239511489868,
                -1.5178172588348389
            ],
            "min" : [
                -1.4223044786376704e-07,
                0.7873062491416931,
                -3.1731679439544678
            ],
            "type" : "VEC3"
        },
        {
            "bufferView" : 11,
            "componentType" : 5126,
            "count" : 24,
            "type" : "VEC3"
        },
        {
            "bufferView" : 12,
            "componentType" : 5126,
            "count" : 24,
            "type" : "VEC2"
        },
        {
            "bufferView" : 13,
            "componentType" : 5123,
            "count" : 36,
            "type" : "SCALAR"
        }
    ],
    "bufferViews" : [
        {
            "buffer" : 0,
            "byteLength" : 95004,
            "byteOffset" : 0
        },
        {
            "buffer" : 0,
            "byteLength" : 95004,
            "byteOffset" : 95004
        },
        {
            "buffer" : 0,
            "byteLength" : 63336,
            "byteOffset" : 190008
        },
        {
            "buffer" : 0,
            "byteLength" : 23040,
            "byteOffset" : 253344
        },
        {
            "buffer" : 0,
            "byteLength" : 36843,
            "byteOffset" : 276384
        },
        {
            "buffer" : 0,
            "byteLength" : 23808,
            "byteOffset" : 313228
        },
        {
            "buffer" : 0,
            "byteLength" : 23808,
            "byteOffset" : 337036
        },
        {
            "buffer" : 0,
            "byteLength" : 15872,
            "byteOffset" : 360844
        },
        {
            "buffer" : 0,
            "byteLength" : 5760,
            "byteOffset" : 376716
        },
        {
            "buffer" : 0,
            "byteLength" : 48327,
            "byteOffset" : 382476
        },
        {
            "buffer" : 0,
            "byteLength" : 288,
            "byteOffset" : 430804
        },
        {
            "buffer" : 0,
            "byteLength" : 288,
            "byteOffset" : 431092
        },
        {
            "buffer" : 0,
            "byteLength" : 192,
            "byteOffset" : 431380
        },
        {
            "buffer" : 0,
            "byteLength" : 72,
            "byteOffset" : 431572
        }
    ],
    "samplers" : [
        {
            "magFilter" : 9729,
            "minFilter" : 9987
        }
    ],
    "buffers" : [
        {
            "byteLength" : 431644,
            "uri" : "data:application/octet-stream;base64,"
        }
    ]
}
