{
    "asset" : {
        "generator" : "Khronos glTF Blender I/O v3.2.43",
        "version" : "2.0"
    },
    "scene" : 0,
    "scenes" : [
        {
            "name" : "Scene",
            "nodes" : [
                0
            ]
        }
    ],
    "nodes" : [
        {
            "mesh" : 0,
            "name" : "Cylinder",
            "scale" : [
                0.20512348413467407,
                2.299900531768799,
                0.20512348413467407
            ]
        }
    ],
    "materials" : [
        {
            "doubleSided" : true,
            "name" : "Material",
            "pbrMetallicRoughness" : {
                "baseColorFactor" : [
                    0.15178528428077698,
                    0.23301731050014496,
                    0.11320444196462631,
                    1
                ],
                "metallicFactor" : 0,
                "roughnessFactor" : 0.4000000059604645
            }
        }
    ],
    "meshes" : [
        {
            "name" : "Cylinder",
            "primitives" : [
                {
                    "attributes" : {
                        "POSITION" : 0,
                        "NORMAL" : 1,
                        "TEXCOORD_0" : 2
                    },
                    "indices" : 3,
                    "material" : 0
                }
            ]
        }
    ],
    "accessors" : [
        {
            "bufferView" : 0,
            "componentType" : 5126,
            "count" : 2240,
            "max" : [
                1.3679119348526,
                1.0344370603561401,
                22.66788673400879
            ],
            "min" : [
                -1.3679119348526,
                -1.1759686470031738,
                -19.846805572509766
            ],
            "type" : "VEC3"
        },
        {
            "bufferView" : 1,
            "componentType" : 5126,
            "count" : 2240,
            "type" : "VEC3"
        },
        {
            "bufferView" : 2,
            "componentType" : 5126,
            "count" : 2240,
            "type" : "VEC2"
        },
        {
            "bufferView" : 3,
            "componentType" : 5123,
            "count" : 3444,
            "type" : "SCALAR"
        }
    ],
    "bufferViews" : [
        {
            "buffer" : 0,
            "byteLength" : 26880,
            "byteOffset" : 0
        },
        {
            "buffer" : 0,
            "byteLength" : 26880,
            "byteOffset" : 26880
        },
        {
            "buffer" : 0,
            "byteLength" : 17920,
            "byteOffset" : 53760
        },
        {
            "buffer" : 0,
            "byteLength" : 6888,
            "byteOffset" : 71680
        }
    ],
    "buffers" : [
        {
            "byteLength" : 78568,
            "uri" : "data:application/octet-stream;base64,"
        }
    ]
}
