{
    "asset" : {
        "generator" : "Khronos glTF Blender I/O v3.2.43",
        "version" : "2.0"
    },
    "scene" : 0,
    "scenes" : [
        {
            "name" : "Scene",
            "nodes" : [
                0
            ]
        }
    ],
    "nodes" : [
        {
            "mesh" : 0,
            "name" : "Cube"
        }
    ],
    "materials" : [
        {
            "doubleSided" : true,
            "name" : "Material",
            "pbrMetallicRoughness" : {
                "baseColorFactor" : [
                    0.07421348243951797,
                    0.11193234473466873,
                    0.05612851679325104,
                    1
                ],
                "metallicFactor" : 0,
                "roughnessFactor" : 0.4000000059604645
            }
        }
    ],
    "meshes" : [
        {
            "name" : "Mesh",
            "primitives" : [
                {
                    "attributes" : {
                        "POSITION" : 0,
                        "NORMAL" : 1
                    },
                    "indices" : 2,
                    "material" : 0
                }
            ]
        }
    ],
    "accessors" : [
        {
            "bufferView" : 0,
            "componentType" : 5126,
            "count" : 10016,
            "max" : [
                1.2123326063156128,
                2.483724355697632,
                2.4590871334075928
            ],
            "min" : [
                0.7876675724983215,
                -1.3452481031417847,
                -4.59677267074585
            ],
            "type" : "VEC3"
        },
        {
            "bufferView" : 1,
            "componentType" : 5126,
            "count" : 10016,
            "type" : "VEC3"
        },
        {
            "bufferView" : 2,
            "componentType" : 5123,
            "count" : 15024,
            "type" : "SCALAR"
        }
    ],
    "bufferViews" : [
        {
            "buffer" : 0,
            "byteLength" : 120192,
            "byteOffset" : 0
        },
        {
            "buffer" : 0,
            "byteLength" : 120192,
            "byteOffset" : 120192
        },
        {
            "buffer" : 0,
            "byteLength" : 30048,
            "byteOffset" : 240384
        }
    ],
    "buffers" : [
        {
            "byteLength" : 270432,
            "uri" : "data:application/octet-stream;base64,"
        }
    ]
}
