{
    "asset" : {
        "generator" : "Khronos glTF Blender I/O v3.2.43",
        "version" : "2.0"
    },
    "scene" : 0,
    "scenes" : [
        {
            "name" : "Scene",
            "nodes" : [
                0,
                1
            ]
        }
    ],
    "nodes" : [
        {
            "mesh" : 0,
            "name" : "shapes",
            "rotation" : [
                0.7071068286895752,
                0,
                0,
                0.7071067094802856
            ],
            "scale" : [
                3.5670480728149414,
                3.5670480728149414,
                3.5670480728149414
            ],
            "translation" : [
                0.5913956761360168,
                0.029491007328033447,
                0.5835829973220825
            ]
        },
        {
            "mesh" : 1,
            "name" : "shapes.003",
            "rotation" : [
                0.7071068286895752,
                0,
                0,
                0.7071067094802856
            ],
            "scale" : [
                2.0677947998046875,
                2.0677947998046875,
                2.0677947998046875
            ],
            "translation" : [
                0.5801441073417664,
                -0.030098332092165947,
                -0.6718091368675232
            ]
        }
    ],
    "materials" : [
        {
            "doubleSided" : true,
            "name" : "Material.001",
            "pbrMetallicRoughness" : {
                "baseColorFactor" : [
                    0.5036758780479431,
                    0,
                    0.0997060090303421,
                    1
                ],
                "metallicFactor" : 0,
                "roughnessFactor" : 0.5
            }
        },
        {
            "doubleSided" : true,
            "name" : "Material.002",
            "pbrMetallicRoughness" : {
                "baseColorFactor" : [
                    0.04093344509601593,
                    0.31337735056877136,
                    0.21004697680473328,
                    1
                ],
                "metallicFactor" : 0,
                "roughnessFactor" : 0.5
            }
        }
    ],
    "meshes" : [
        {
            "name" : "shapes",
            "primitives" : [
                {
                    "attributes" : {
                        "POSITION" : 0,
                        "NORMAL" : 1
                    },
                    "indices" : 2,
                    "material" : 0
                }
            ]
        },
        {
            "name" : "shapes.003",
            "primitives" : [
                {
                    "attributes" : {
                        "POSITION" : 3,
                        "NORMAL" : 4
                    },
                    "indices" : 5,
                    "material" : 1
                }
            ]
        }
    ],
    "accessors" : [
        {
            "bufferView" : 0,
            "componentType" : 5126,
            "count" : 24882,
            "max" : [
                0.11636786162853241,
                0.11734375357627869,
                0.12068015336990356
            ],
            "min" : [
                -0.11600799113512039,
                -0.11724531650543213,
                -0.12094885110855103
            ],
            "type" : "VEC3"
        },
        {
            "bufferView" : 1,
            "componentType" : 5126,
            "count" : 24882,
            "type" : "VEC3"
        },
        {
            "bufferView" : 2,
            "componentType" : 5123,
            "count" : 149280,
            "type" : "SCALAR"
        },
        {
            "bufferView" : 3,
            "componentType" : 5126,
            "count" : 15386,
            "max" : [
                0.09647396206855774,
                0.1964237540960312,
                0.15242262184619904
            ],
            "min" : [
                -0.09469987452030182,
                -0.15306229889392853,
                -0.18562756478786469
            ],
            "type" : "VEC3"
        },
        {
            "bufferView" : 4,
            "componentType" : 5126,
            "count" : 15386,
            "type" : "VEC3"
        },
        {
            "bufferView" : 5,
            "componentType" : 5123,
            "count" : 92232,
            "type" : "SCALAR"
        }
    ],
    "bufferViews" : [
        {
            "buffer" : 0,
            "byteLength" : 298584,
            "byteOffset" : 0
        },
        {
            "buffer" : 0,
            "byteLength" : 298584,
            "byteOffset" : 298584
        },
        {
            "buffer" : 0,
            "byteLength" : 298560,
            "byteOffset" : 597168
        },
        {
            "buffer" : 0,
            "byteLength" : 184632,
            "byteOffset" : 895728
        },
        {
            "buffer" : 0,
            "byteLength" : 184632,
            "byteOffset" : 1080360
        },
        {
            "buffer" : 0,
            "byteLength" : 184464,
            "byteOffset" : 1264992
        }
    ],
    "buffers" : [
        {
            "byteLength" : 1449456,
            "uri" : "data:application/octet-stream;base64,"
        }
    ]
}
