{
    "asset" : {
        "generator" : "Khronos glTF Blender I/O v3.3.32",
        "version" : "2.0"
    },
    "extensionsUsed" : [
        "KHR_texture_transform"
    ],
    "extensionsRequired" : [
        "KHR_texture_transform"
    ],
    "scene" : 0,
    "scenes" : [
        {
            "name" : "Scene",
            "nodes" : [
                0,
                1,
                2,
                3,
                4,
                5,
                6,
                7
            ]
        }
    ],
    "nodes" : [
        {
            "mesh" : 0,
            "name" : "Cube",
            "scale" : [
                9.341870307922363,
                6.155553817749023,
                13.794783592224121
            ],
            "translation" : [
                -1.070517897605896,
                0.3958702087402344,
                -0.02288651466369629
            ]
        },
        {
            "mesh" : 1,
            "name" : "Cube.001",
            "scale" : [
                10.207332611083984,
                0.7167848348617554,
                13.794783592224121
            ],
            "translation" : [
                -1.070517897605896,
                2.4654321670532227,
                -0.02288651466369629
            ]
        },
        {
            "mesh" : 2,
            "name" : "Cube.002",
            "scale" : [
                9.937459945678711,
                1.0534628629684448,
                4.077315807342529
            ],
            "translation" : [
                -1.070517897605896,
                3.062488079071045,
                -0.02288651466369629
            ]
        },
        {
            "mesh" : 3,
            "name" : "Cube.003",
            "scale" : [
                9.937459945678711,
                1.0534628629684448,
                10.17326831817627
            ],
            "translation" : [
                -1.070517897605896,
                1.3760435581207275,
                0.1585996150970459
            ]
        },
        {
            "mesh" : 4,
            "name" : "Cube.004",
            "scale" : [
                9.937459945678711,
                1.6135047674179077,
                14.140641212463379
            ],
            "translation" : [
                -1.070517897605896,
                -0.5581265687942505,
                0.1585996150970459
            ]
        },
        {
            "mesh" : 5,
            "name" : "Cylinder",
            "rotation" : [
                0,
                0,
                -0.7071067094802856,
                0.7071068286895752
            ],
            "scale" : [
                3.826700210571289,
                10.107433319091797,
                6.155400276184082
            ],
            "translation" : [
                -1.070517897605896,
                -3.945706844329834,
                -0.02288651466369629
            ]
        },
        {
            "mesh" : 6,
            "name" : "Cylinder.001",
            "scale" : [
                0.8390552401542664,
                3.0858445167541504,
                0.8589942455291748
            ],
            "translation" : [
                9.380033493041992,
                5.805655002593994,
                0
            ]
        },
        {
            "mesh" : 7,
            "name" : "Cylinder.002",
            "scale" : [
                0.8390552401542664,
                4.343317031860352,
                0.8589942455291748
            ],
            "translation" : [
                9.380033493041992,
                6.285641670227051,
                -5.524159908294678
            ]
        }
    ],
    "materials" : [
        {
            "doubleSided" : true,
            "name" : "Material",
            "pbrMetallicRoughness" : {
                "baseColorFactor" : [
                    0.4511517882347107,
                    0.4511517882347107,
                    0.4511517882347107,
                    1
                ],
                "metallicFactor" : 0,
                "roughnessFactor" : 0.5
            }
        },
        {
            "doubleSided" : true,
            "name" : "Material.006",
            "pbrMetallicRoughness" : {
                "metallicFactor" : 0,
                "roughnessFactor" : 0.5
            }
        },
        {
            "doubleSided" : true,
            "name" : "Material.002",
            "pbrMetallicRoughness" : {
                "baseColorTexture" : {
                    "extensions" : {
                        "KHR_texture_transform" : {
                            "offset" : [
                                0.36162429812530156,
                                1.932323906700554
                            ],
                            "rotation" : 3.5116021633148193
                        }
                    },
                    "index" : 0
                },
                "metallicFactor" : 0,
                "roughnessFactor" : 0.5
            }
        },
        {
            "doubleSided" : true,
            "name" : "Material.001",
            "pbrMetallicRoughness" : {
                "baseColorTexture" : {
                    "index" : 1
                },
                "metallicFactor" : 0,
                "roughnessFactor" : 0.5
            }
        },
        {
            "doubleSided" : true,
            "name" : "Material.003",
            "pbrMetallicRoughness" : {
                "baseColorTexture" : {
                    "index" : 2
                },
                "metallicFactor" : 0,
                "roughnessFactor" : 0.5
            }
        },
        {
            "doubleSided" : true,
            "name" : "Material.004",
            "pbrMetallicRoughness" : {
                "baseColorFactor" : [
                    0.8000000715255737,
                    0.7908071875572205,
                    0,
                    1
                ],
                "metallicFactor" : 0,
                "roughnessFactor" : 0.5
            }
        },
        {
            "doubleSided" : true,
            "name" : "Material.005",
            "pbrMetallicRoughness" : {
                "baseColorTexture" : {
                    "extensions" : {
                        "KHR_texture_transform" : {
                            "offset" : [
                                0,
                                -6.799999713897705
                            ],
                            "scale" : [
                                1,
                                7.799999713897705
                            ]
                        }
                    },
                    "index" : 3
                },
                "metallicFactor" : 0,
                "roughnessFactor" : 0.5
            }
        }
    ],
    "meshes" : [
        {
            "name" : "Cube",
            "primitives" : [
                {
                    "attributes" : {
                        "POSITION" : 0,
                        "NORMAL" : 1,
                        "TEXCOORD_0" : 2
                    },
                    "indices" : 3,
                    "material" : 0
                }
            ]
        },
        {
            "name" : "Cube.001",
            "primitives" : [
                {
                    "attributes" : {
                        "POSITION" : 4,
                        "NORMAL" : 5,
                        "TEXCOORD_0" : 6
                    },
                    "indices" : 7,
                    "material" : 1
                }
            ]
        },
        {
            "name" : "Cube.002",
            "primitives" : [
                {
                    "attributes" : {
                        "POSITION" : 8,
                        "NORMAL" : 9,
                        "TEXCOORD_0" : 10
                    },
                    "indices" : 11,
                    "material" : 2
                }
            ]
        },
        {
            "name" : "Cube.003",
            "primitives" : [
                {
                    "attributes" : {
                        "POSITION" : 12,
                        "NORMAL" : 13,
                        "TEXCOORD_0" : 14
                    },
                    "indices" : 11,
                    "material" : 3
                }
            ]
        },
        {
            "name" : "Cube.004",
            "primitives" : [
                {
                    "attributes" : {
                        "POSITION" : 15,
                        "NORMAL" : 16,
                        "TEXCOORD_0" : 17
                    },
                    "indices" : 11,
                    "material" : 4
                }
            ]
        },
        {
            "name" : "Cylinder",
            "primitives" : [
                {
                    "attributes" : {
                        "POSITION" : 18,
                        "NORMAL" : 19,
                        "TEXCOORD_0" : 20
                    },
                    "indices" : 21,
                    "material" : 5
                }
            ]
        },
        {
            "name" : "Cylinder.001",
            "primitives" : [
                {
                    "attributes" : {
                        "POSITION" : 22,
                        "NORMAL" : 23,
                        "TEXCOORD_0" : 24
                    },
                    "indices" : 25,
                    "material" : 6
                }
            ]
        },
        {
            "name" : "Cylinder.002",
            "primitives" : [
                {
                    "attributes" : {
                        "POSITION" : 26,
                        "NORMAL" : 27,
                        "TEXCOORD_0" : 28
                    },
                    "indices" : 25,
                    "material" : 6
                }
            ]
        }
    ],
    "textures" : [
        {
            "sampler" : 0,
            "source" : 0
        },
        {
            "sampler" : 0,
            "source" : 1
        },
        {
            "sampler" : 0,
            "source" : 2
        },
        {
            "sampler" : 0,
            "source" : 3
        }
    ],
    "images" : [
        {
            "bufferView" : 12,
            "mimeType" : "image/png",
            "name" : "thick-steam-hovering-air-black-260nw-1680698413"
        },
        {
            "bufferView" : 16,
            "mimeType" : "image/png",
            "name" : "images"
        },
        {
            "bufferView" : 20,
            "mimeType" : "image/png",
            "name" : "download"
        },
        {
            "bufferView" : 29,
            "mimeType" : "image/png",
            "name" : "download (2)"
        }
    ],
    "accessors" : [
        {
            "bufferView" : 0,
            "componentType" : 5126,
            "count" : 1536,
            "max" : [
                1.047569751739502,
                1.0522147417068481,
                1.0383715629577637
            ],
            "min" : [
                -1.0495095252990723,
                -1.0555280447006226,
                -1.0610110759735107
            ],
            "type" : "VEC3"
        },
        {
            "bufferView" : 1,
            "componentType" : 5126,
            "count" : 1536,
            "type" : "VEC3"
        },
        {
            "bufferView" : 2,
            "componentType" : 5126,
            "count" : 1536,
            "type" : "VEC2"
        },
        {
            "bufferView" : 3,
            "componentType" : 5123,
            "count" : 2304,
            "type" : "SCALAR"
        },
        {
            "bufferView" : 4,
            "componentType" : 5126,
            "count" : 1536,
            "max" : [
                1.047569751739502,
                3.473013401031494,
                1.0383715629577637
            ],
            "min" : [
                -1.0495095252990723,
                -6.664952278137207,
                -1.0610110759735107
            ],
            "type" : "VEC3"
        },
        {
            "bufferView" : 5,
            "componentType" : 5126,
            "count" : 1536,
            "type" : "VEC3"
        },
        {
            "bufferView" : 6,
            "componentType" : 5126,
            "count" : 1536,
            "type" : "VEC2"
        },
        {
            "bufferView" : 7,
            "componentType" : 5123,
            "count" : 2304,
            "type" : "SCALAR"
        },
        {
            "bufferView" : 8,
            "componentType" : 5126,
            "count" : 24,
            "max" : [
                1,
                0.5885097980499268,
                1.5972751379013062
            ],
            "min" : [
                -1,
                -1,
                -1.5972751379013062
            ],
            "type" : "VEC3"
        },
        {
            "bufferView" : 9,
            "componentType" : 5126,
            "count" : 24,
            "type" : "VEC3"
        },
        {
            "bufferView" : 10,
            "componentType" : 5126,
            "count" : 24,
            "type" : "VEC2"
        },
        {
            "bufferView" : 11,
            "componentType" : 5123,
            "count" : 36,
            "type" : "SCALAR"
        },
        {
            "bufferView" : 13,
            "componentType" : 5126,
            "count" : 24,
            "max" : [
                1,
                0.5885097980499268,
                1
            ],
            "min" : [
                -1,
                -1,
                -1
            ],
            "type" : "VEC3"
        },
        {
            "bufferView" : 14,
            "componentType" : 5126,
            "count" : 24,
            "type" : "VEC3"
        },
        {
            "bufferView" : 15,
            "componentType" : 5126,
            "count" : 24,
            "type" : "VEC2"
        },
        {
            "bufferView" : 17,
            "componentType" : 5126,
            "count" : 24,
            "max" : [
                1,
                0.5885097980499268,
                1
            ],
            "min" : [
                -1,
                -1,
                -1
            ],
            "type" : "VEC3"
        },
        {
            "bufferView" : 18,
            "componentType" : 5126,
            "count" : 24,
            "type" : "VEC3"
        },
        {
            "bufferView" : 19,
            "componentType" : 5126,
            "count" : 24,
            "type" : "VEC2"
        },
        {
            "bufferView" : 21,
            "componentType" : 5126,
            "count" : 192,
            "max" : [
                1,
                1.0000001192092896,
                1.689842939376831
            ],
            "min" : [
                -1.3473503589630127,
                -1.0000001192092896,
                -1.6563063859939575
            ],
            "type" : "VEC3"
        },
        {
            "bufferView" : 22,
            "componentType" : 5126,
            "count" : 192,
            "type" : "VEC3"
        },
        {
            "bufferView" : 23,
            "componentType" : 5126,
            "count" : 192,
            "type" : "VEC2"
        },
        {
            "bufferView" : 24,
            "componentType" : 5123,
            "count" : 372,
            "type" : "SCALAR"
        },
        {
            "bufferView" : 25,
            "componentType" : 5126,
            "count" : 386,
            "max" : [
                1,
                1,
                1
            ],
            "min" : [
                -1,
                -1,
                -1
            ],
            "type" : "VEC3"
        },
        {
            "bufferView" : 26,
            "componentType" : 5126,
            "count" : 386,
            "type" : "VEC3"
        },
        {
            "bufferView" : 27,
            "componentType" : 5126,
            "count" : 386,
            "type" : "VEC2"
        },
        {
            "bufferView" : 28,
            "componentType" : 5123,
            "count" : 756,
            "type" : "SCALAR"
        },
        {
            "bufferView" : 30,
            "componentType" : 5126,
            "count" : 386,
            "max" : [
                1.2799999713897705,
                1,
                1.2799999713897705
            ],
            "min" : [
                -1.2799999713897705,
                -1.1919950246810913,
                -1.2799999713897705
            ],
            "type" : "VEC3"
        },
        {
            "bufferView" : 31,
            "componentType" : 5126,
            "count" : 386,
            "type" : "VEC3"
        },
        {
            "bufferView" : 32,
            "componentType" : 5126,
            "count" : 386,
            "type" : "VEC2"
        }
    ],
    "bufferViews" : [
        {
            "buffer" : 0,
            "byteLength" : 18432,
            "byteOffset" : 0,
            "target" : 34962
        },
        {
            "buffer" : 0,
            "byteLength" : 18432,
            "byteOffset" : 18432,
            "target" : 34962
        },
        {
            "buffer" : 0,
            "byteLength" : 12288,
            "byteOffset" : 36864,
            "target" : 34962
        },
        {
            "buffer" : 0,
            "byteLength" : 4608,
            "byteOffset" : 49152,
            "target" : 34963
        },
        {
            "buffer" : 0,
            "byteLength" : 18432,
            "byteOffset" : 53760,
            "target" : 34962
        },
        {
            "buffer" : 0,
            "byteLength" : 18432,
            "byteOffset" : 72192,
            "target" : 34962
        },
        {
            "buffer" : 0,
            "byteLength" : 12288,
            "byteOffset" : 90624,
            "target" : 34962
        },
        {
            "buffer" : 0,
            "byteLength" : 4608,
            "byteOffset" : 102912,
            "target" : 34963
        },
        {
            "buffer" : 0,
            "byteLength" : 288,
            "byteOffset" : 107520,
            "target" : 34962
        },
        {
            "buffer" : 0,
            "byteLength" : 288,
            "byteOffset" : 107808,
            "target" : 34962
        },
        {
            "buffer" : 0,
            "byteLength" : 192,
            "byteOffset" : 108096,
            "target" : 34962
        },
        {
            "buffer" : 0,
            "byteLength" : 72,
            "byteOffset" : 108288,
            "target" : 34963
        },
        {
            "buffer" : 0,
            "byteLength" : 117948,
            "byteOffset" : 108360
        },
        {
            "buffer" : 0,
            "byteLength" : 288,
            "byteOffset" : 226308,
            "target" : 34962
        },
        {
            "buffer" : 0,
            "byteLength" : 288,
            "byteOffset" : 226596,
            "target" : 34962
        },
        {
            "buffer" : 0,
            "byteLength" : 192,
            "byteOffset" : 226884,
            "target" : 34962
        },
        {
            "buffer" : 0,
            "byteLength" : 64043,
            "byteOffset" : 227076
        },
        {
            "buffer" : 0,
            "byteLength" : 288,
            "byteOffset" : 291120,
            "target" : 34962
        },
        {
            "buffer" : 0,
            "byteLength" : 288,
            "byteOffset" : 291408,
            "target" : 34962
        },
        {
            "buffer" : 0,
            "byteLength" : 192,
            "byteOffset" : 291696,
            "target" : 34962
        },
        {
            "buffer" : 0,
            "byteLength" : 98493,
            "byteOffset" : 291888
        },
        {
            "buffer" : 0,
            "byteLength" : 2304,
            "byteOffset" : 390384,
            "target" : 34962
        },
        {
            "buffer" : 0,
            "byteLength" : 2304,
            "byteOffset" : 392688,
            "target" : 34962
        },
        {
            "buffer" : 0,
            "byteLength" : 1536,
            "byteOffset" : 394992,
            "target" : 34962
        },
        {
            "buffer" : 0,
            "byteLength" : 744,
            "byteOffset" : 396528,
            "target" : 34963
        },
        {
            "buffer" : 0,
            "byteLength" : 4632,
            "byteOffset" : 397272,
            "target" : 34962
        },
        {
            "buffer" : 0,
            "byteLength" : 4632,
            "byteOffset" : 401904,
            "target" : 34962
        },
        {
            "buffer" : 0,
            "byteLength" : 3088,
            "byteOffset" : 406536,
            "target" : 34962
        },
        {
            "buffer" : 0,
            "byteLength" : 1512,
            "byteOffset" : 409624,
            "target" : 34963
        },
        {
            "buffer" : 0,
            "byteLength" : 64681,
            "byteOffset" : 411136
        },
        {
            "buffer" : 0,
            "byteLength" : 4632,
            "byteOffset" : 475820,
            "target" : 34962
        },
        {
            "buffer" : 0,
            "byteLength" : 4632,
            "byteOffset" : 480452,
            "target" : 34962
        },
        {
            "buffer" : 0,
            "byteLength" : 3088,
            "byteOffset" : 485084,
            "target" : 34962
        }
    ],
    "samplers" : [
        {
            "magFilter" : 9729,
            "minFilter" : 9987
        }
    ],
    "buffers" : [
        {
            "byteLength" : 488172,
            "uri" : "data:application/octet-stream;base64,"
        }
    ]
}
